<svg id="facing-icon" viewBox="0 0 42 42" fill="none" xmlns="http://www.w3.org/2000/svg">
  <circle cx="21" cy="21" r="21" fill="#EA0009"/>
  <path d="M12.2055 30H29.7945C31.9179 30 33 28.9638 33 26.9114V16.4798C33 14.4274 31.9179 13.4012 29.7945 13.4012H27.4057C26.6095 13.4012 26.3645 13.2418 25.9051 12.7436L25.0783 11.8469C24.5781 11.2989 24.0575 11 22.9957 11H18.9328C17.8813 11 17.3607 11.2989 16.8503 11.8469L16.0234 12.7436C15.5742 13.2318 15.319 13.4012 14.5228 13.4012H12.2055C10.0821 13.4012 9 14.4274 9 16.4798V26.9114C9 28.9638 10.0821 30 12.2055 30ZM12.2361 28.3959C11.2254 28.3959 10.6436 27.8678 10.6436 26.8316V16.5695C10.6436 15.5333 11.2254 15.0052 12.2361 15.0052H14.9311C15.8499 15.0052 16.3399 14.8359 16.8503 14.2779L17.6567 13.4012C18.2386 12.7635 18.5346 12.6041 19.4432 12.6041H22.4853C23.3939 12.6041 23.6899 12.7635 24.2718 13.4012L25.0783 14.2779C25.5887 14.8359 26.0787 15.0052 26.9975 15.0052H29.764C30.7746 15.0052 31.3565 15.5333 31.3565 16.5695V26.8316C31.3565 27.8678 30.7746 28.3959 29.764 28.3959H12.2361ZM21.0051 15.6927C19.7801 15.6927 18.5245 16.1211 17.6772 16.8186C17.2076 17.1773 17.0851 17.6754 17.4322 18.0341C17.7793 18.3928 18.2284 18.343 18.6061 18.054C19.3207 17.4961 20.0455 17.2171 21.0051 17.2171C22.9855 17.2171 24.6291 18.5223 25.068 20.226H23.9554C23.496 20.226 23.3837 20.6544 23.6491 20.9932L25.2518 23.1752C25.5172 23.5338 25.9766 23.5637 26.2522 23.1752L27.8345 20.9932C28.0898 20.6444 27.9876 20.226 27.5282 20.226H26.5381C26.0583 17.5459 23.8328 15.6927 21.0051 15.6927ZM14.4411 21.9796H15.4926C15.9826 24.6597 18.208 26.5128 21.0255 26.5128C22.2607 26.5128 23.496 26.0944 24.3637 25.3969C24.8333 25.0383 24.9557 24.5302 24.6087 24.1715C24.2616 23.8128 23.8124 23.8726 23.4143 24.1515C22.6997 24.6995 21.9851 24.9984 21.0255 24.9984C19.0553 24.9984 17.4015 23.6932 16.9728 21.9796H18.0243C18.4734 21.9796 18.5959 21.5611 18.3305 21.2124L16.7278 19.0404C16.4623 18.6817 16.003 18.6518 15.7273 19.0404L14.145 21.2124C13.8898 21.5611 13.9919 21.9796 14.4411 21.9796Z" fill="white"/>
</svg>